<svg xmlns="http://www.w3.org/2000/svg" xmlns:xlink="http://www.w3.org/1999/xlink" viewBox="0,0,255.99538,255.99538" width="128px" height="128px" fill-rule="nonzero"><g fill="#dddddd" fill-rule="nonzero" stroke="none" stroke-width="1" stroke-linecap="butt" stroke-linejoin="miter" stroke-miterlimit="10" stroke-dasharray="" stroke-dashoffset="0" font-family="none" font-weight="none" font-size="none" text-anchor="none" style="mix-blend-mode: normal"><path d="M0,255.99538v-255.99538h255.99538v255.99538z" id="bgRectangle"></path></g><g fill="none" fill-rule="nonzero" stroke="none" stroke-width="none" stroke-linecap="none" stroke-linejoin="miter" stroke-miterlimit="10" stroke-dasharray="" stroke-dashoffset="0" font-family="none" font-weight="none" font-size="none" text-anchor="none" style="mix-blend-mode: normal"><g transform="scale(2,2)"><path d="M64,16c-26.50967,0 -48,21.49033 -48,48c0,26.50967 21.49033,48 48,48c26.50967,0 48,-21.49033 48,-48c0,-26.50967 -21.49033,-48 -48,-48z" fill="#ffffff" stroke="none" stroke-width="1" stroke-linecap="butt"></path><path d="M64,25c-21.53911,0 -39,17.46089 -39,39c0,21.53911 17.46089,39 39,39c21.53911,0 39,-17.46089 39,-39c0,-21.53911 -17.46089,-39 -39,-39z" fill="#8ccfb9" stroke="none" stroke-width="1" stroke-linecap="butt"></path><path d="M64,16c-26.50967,0 -48,21.49033 -48,48c0,26.50967 21.49033,48 48,48c26.50967,0 48,-21.49033 48,-48c0,-26.50967 -21.49033,-48 -48,-48z" fill="none" stroke="#444b54" stroke-width="6" stroke-linecap="butt"></path><path d="M42,69l13.55,12l30.45,-35" fill="none" stroke="#ffffff" stroke-width="6" stroke-linecap="round"></path></g></g></svg>